<svg width="84" height="97" viewBox="0 0 84 97" fill="none" xmlns="http://www.w3.org/2000/svg">
<path fill-rule="evenodd" clip-rule="evenodd" d="M24.143 5.6571C22.7657 4.11656 23.2105 1.43051 25.0098 0.422787C27.7472 -1.11036 30.5023 1.84402 29.9219 4.20312C29.3628 6.47565 25.6989 7.39748 24.143 5.6571ZM33.5 39.5C33.5 39.5 37.061 16.5183 30.6075 10.7024C24.1541 4.88646 17.8865 15.9055 17.8865 15.9055L21 16.7696C21 16.7696 24.5684 14.747 25.8789 16.7696C26.9355 18.4005 27.3643 21.8648 27.9005 26.1974C27.9332 26.4618 27.9663 26.7294 28 27C28.2267 28.8209 28.3858 30.48 28.5205 31.8837C28.7244 34.0094 28.8721 35.5493 29.113 36.1782C29.5129 37.2222 33.5 39.5 33.5 39.5ZM18.4925 23.2024C20.6131 29.9058 23.4041 35.1158 25.9522 39.8724C29.2614 46.0498 32.161 51.4625 32.6508 58.3886C33.1302 65.1697 30.4551 73.0567 24.143 75.5C20.3867 76.954 14.1583 76.8264 7.51256 74.5C5.2789 73.7181 2.57294 71.3127 1.15578 69.4388C0.0866371 68.0252 0.577889 67.1125 0.577889 67.1125C0.577889 67.1125 15.3141 72.2368 21.5 68C23.5226 66.6147 25.3715 62.7957 25.1382 59.6292C24.8708 56 21.1049 51.7165 16.7083 51.7442C16.7083 51.7442 12.0022 51.2165 9 53.5C8.43046 53.9332 7.74861 54.482 7.02669 55.0631C5.50333 56.2893 3.80159 57.6591 2.6005 58.3886C0.620872 59.591 0 58.3886 0 58.3886C0 58.3886 4.20587 46.0097 7.51256 38.3238C10.2994 31.8462 15.3141 22.0392 15.3141 22.0392L18.4925 23.2024ZM44.1689 92.9193L50.6199 11.5547L41.1859 10.6292L37.1323 92.0353L44.1689 92.9193ZM74.3845 61.218L54.48 59.2652L52.5243 93.5381L76.4116 96.8864C76.4116 96.8864 75.6898 91.021 75.5 90.5C75.3102 89.979 59.5 88.5 59.5 88.5L60.2014 80.425L70.43 81.042C70.43 81.042 71.0449 76.3855 70.4807 75.4046C70.2625 75.0254 60.6777 74.4429 60.6777 74.4429L61.3095 66.4665L75.2915 67.3358L74.3845 61.218ZM15.2381 39.3385C13.2415 39.645 9.96909 41.836 10.9799 45.3028C11.0621 45.5848 11.9502 45.4531 13.1387 45.2768C14.0556 45.1408 15.1513 44.9783 16.1939 44.9587C17.4651 44.9348 18.5198 45.1549 19.2243 45.3019C19.7915 45.4202 20.1317 45.4912 20.1748 45.3493C20.9165 42.91 18.8087 38.7904 15.2381 39.3385Z" fill="black"/>
<path d="M46.6395 11.1599C46.6395 11.1599 71.3911 12.6519 78.5923 23.4484C82.1142 28.7286 83.3757 34.1095 81.5039 40.6572C79.3708 48.1189 73.1091 52.3876 65.5 51.5C57.8909 50.6124 54.1859 46.3539 54 45.5C53.8141 44.6461 53.1859 40.1292 53.1859 40.1292C53.1859 40.1292 59.5585 43.1764 64.5992 43.1764C69.64 43.1764 71.8065 38.4728 72 36.5C72.5614 30.7773 70.1078 26.8262 65.5 23.4484C62.2585 21.0722 48.1859 18.1292 48.1859 18.1292L47.7342 17.5647L46.6395 11.1599Z" fill="black"/>
</svg>
